<svg version="1.1" id="Layer_1" xmlns="http://www.w3.org/2000/svg" xmlns:xlink="http://www.w3.org/1999/xlink" x="0px" y="0px"
	 width="100%" viewBox="0 0 612 492" enable-background="new 0 0 612 492" xml:space="preserve">
<path fill="#000000" opacity="1.000000" stroke="none" 
	d="
M446.000000,493.000000 
	C297.333374,493.000000 149.166733,493.000000 1.000079,493.000000 
	C1.000053,329.000061 1.000053,165.000153 1.000026,1.000168 
	C204.999878,1.000112 408.999756,1.000112 612.999756,1.000056 
	C612.999817,164.999832 612.999817,328.999664 612.999878,492.999756 
	C557.500000,493.000000 502.000000,493.000000 446.000000,493.000000 
M268.238861,273.585266 
	C269.428589,274.871643 270.618286,276.158020 271.872406,277.834564 
	C271.872406,277.834564 272.243835,277.970245 272.350037,278.603638 
	C273.925171,280.352264 275.500305,282.100891 277.052704,283.935455 
	C277.052704,283.935455 277.141571,283.932892 277.252136,284.578278 
	C278.443054,285.852356 279.633942,287.126434 280.890381,288.805725 
	C280.890381,288.805725 281.267456,288.967865 281.378265,289.602631 
	C282.852264,291.222626 284.326294,292.842651 285.857422,294.840027 
	C285.857422,294.840027 286.214966,294.973602 286.319336,295.606567 
	C287.493713,296.856262 288.668091,298.105927 289.963135,299.884216 
	C290.355408,300.239349 290.747650,300.594513 291.243988,301.578308 
	C292.122131,302.476166 293.000244,303.373993 293.996521,304.816162 
	C294.395111,305.188812 294.793732,305.561432 295.297424,306.553040 
	C296.171448,307.429291 297.045441,308.305542 298.071808,309.772217 
	C298.764130,310.497162 299.456421,311.222137 300.254150,312.571503 
	C301.137421,313.452881 302.020660,314.334290 303.051880,315.802338 
	C303.736328,316.521942 304.420776,317.241577 305.194336,318.560883 
	C305.774078,319.091217 306.353790,319.621582 307.091919,320.744629 
	C307.785309,321.476410 308.478668,322.208160 309.287018,323.559113 
	C310.161377,324.440094 311.035736,325.321075 312.063354,326.790039 
	C312.751434,327.511261 313.439514,328.232513 314.220673,329.546936 
	C314.797638,330.068756 315.374573,330.590607 316.118378,331.714233 
	C316.824432,332.466675 317.530518,333.219147 318.336609,334.581268 
	C319.200928,335.440857 320.065247,336.300446 321.082275,337.752777 
	C321.774292,338.483215 322.466278,339.213684 323.267242,340.566833 
	C324.147247,341.447357 325.027222,342.327850 326.055023,343.796448 
	C326.742035,344.516754 327.429047,345.237091 328.226837,346.586914 
	C329.108459,347.486816 329.990082,348.386749 330.988525,349.830841 
	C331.389679,350.198578 331.790863,350.566315 332.303558,351.552307 
	C333.174286,352.431519 334.044983,353.310760 335.064240,354.779510 
	C335.751526,355.504425 336.438812,356.229309 337.232178,357.581360 
	C338.119324,358.466827 339.006439,359.352295 340.021851,360.798798 
	C340.431946,361.189148 340.842041,361.579468 341.350067,362.578674 
	C342.210602,363.437531 343.071167,364.296356 344.081970,365.749329 
	C344.775818,366.480377 345.469666,367.211395 346.268585,368.565491 
	C347.149414,369.443726 348.030212,370.321991 349.038025,371.769012 
	C349.449707,372.168549 349.861389,372.568085 350.369049,373.573578 
	C351.226837,374.426392 352.084656,375.279236 353.103821,376.732422 
	C353.808319,377.479462 354.512787,378.226501 355.315308,379.587189 
	C356.183716,380.451355 357.052124,381.315521 358.067902,382.771729 
	C358.758087,383.497833 359.448273,384.223969 360.243256,385.576630 
	C361.127869,386.461273 362.012482,387.345917 363.023315,388.794769 
	C363.435364,389.186127 363.847412,389.577484 364.371216,390.594421 
	C365.534271,391.833740 366.697327,393.073059 367.971741,394.853119 
	C368.370758,395.215637 368.769745,395.578186 369.275360,396.563904 
	C370.151764,397.447327 371.028168,398.330750 372.035217,399.780762 
	C372.449097,400.176239 372.862976,400.571686 373.371521,401.572784 
	C374.229004,402.424774 375.086487,403.276764 376.105438,404.730469 
	C376.811920,405.477936 377.518372,406.225433 378.385773,407.673340 
	C380.300781,408.332184 382.212372,409.552399 384.131317,409.564056 
	C406.264374,409.698547 428.398529,409.654663 450.532410,409.638947 
	C451.954498,409.637939 453.376434,409.478546 456.034241,409.318329 
	C452.930389,405.918762 450.537048,403.297394 448.069122,400.230652 
	C448.069122,400.230652 447.659760,400.039978 447.562592,399.412262 
	C446.086548,397.840790 444.610474,396.269318 443.054413,394.242432 
	C443.054413,394.242432 442.637573,394.042236 442.540924,393.416992 
	C441.069397,391.850006 439.597870,390.283020 438.016235,388.165802 
	C437.608673,387.800751 437.201080,387.435730 436.686737,386.425232 
	C435.183350,384.814972 433.679962,383.204742 432.113800,381.183868 
	C432.113800,381.183868 431.726776,381.033081 431.630432,380.396576 
	C430.142548,378.804199 428.654633,377.211853 427.098999,375.197571 
	C427.098999,375.197571 426.703583,375.035583 426.598785,374.389648 
	C421.777710,368.824646 416.956635,363.259674 412.020538,357.148834 
	C411.613312,356.788971 411.206085,356.429108 410.692413,355.422363 
	C409.191284,353.802399 407.690186,352.182404 406.129089,350.165649 
	C406.129089,350.165649 405.751312,350.030396 405.650452,349.391876 
	C404.160034,347.790466 402.669586,346.189056 401.114502,344.179443 
	C401.114502,344.179443 400.728058,344.032990 400.627747,343.397552 
	C399.140167,341.806427 397.652588,340.215302 396.095520,338.201752 
	C396.095520,338.201752 395.700836,338.035828 395.595978,337.390259 
	C390.776154,331.824524 385.956329,326.258820 381.023254,320.148254 
	C380.618713,319.787537 380.214172,319.426788 379.703644,318.428558 
	C378.511932,317.189606 377.320221,315.950684 376.013580,314.164307 
	C375.606873,313.799713 375.200165,313.435120 374.683044,312.426331 
	C373.180328,310.817444 371.677643,309.208588 370.114105,307.190918 
	C370.114105,307.190918 369.732422,307.032349 369.631195,306.397034 
	C368.143005,304.804932 366.654816,303.212860 365.101624,301.202911 
	C365.101624,301.202911 364.713837,301.034271 364.609375,300.402161 
	C363.125000,298.817017 361.640656,297.231903 360.086304,295.217743 
	C360.086304,295.217743 359.691132,295.036652 359.581726,294.408417 
	C358.103577,292.828369 356.625397,291.248352 355.031799,289.130615 
	C354.631927,288.773499 354.232025,288.416382 353.719543,287.421387 
	C352.522675,286.184570 351.325806,284.947754 350.011627,283.167542 
	C349.609924,282.800537 349.208221,282.433533 348.702087,281.429565 
	C347.507690,280.197601 346.313263,278.965607 344.991608,277.176636 
	C344.580872,276.794159 344.170135,276.411652 343.655579,275.401733 
	C342.474182,274.184631 341.292755,272.967560 339.982849,271.189331 
	C339.569733,270.803192 339.156616,270.417053 338.635620,269.406616 
	C337.458221,268.193695 336.280853,266.980804 334.950439,265.182404 
	C334.256226,264.470917 333.562012,263.759430 332.765717,262.421082 
	C331.874725,261.544464 330.983765,260.667847 329.937897,259.203247 
	C329.240692,258.487061 328.543488,257.770844 327.742157,256.430939 
	C326.855835,255.557983 325.969513,254.685028 324.921448,253.223053 
	C324.220428,252.503021 323.519379,251.783005 322.706360,250.444275 
	C321.829102,249.573090 320.951843,248.701904 319.903900,247.234634 
	C319.191895,246.499161 318.479919,245.763687 317.657959,244.419907 
	C316.794556,243.561844 315.931183,242.703781 314.895996,241.247177 
	C314.179993,240.508209 313.463959,239.769257 312.636200,238.426437 
	C311.776825,237.573196 310.917480,236.719955 309.877228,235.258560 
	C308.875885,234.187714 307.874542,233.116882 306.776031,231.455261 
	C306.198547,230.936295 305.621063,230.417343 304.864258,229.286713 
	C303.860779,228.208527 302.857300,227.130341 301.760956,225.464081 
	C301.185455,224.948990 300.609924,224.433899 299.853058,223.303192 
	C298.837494,222.209869 297.821930,221.116547 296.723328,219.444534 
	C296.156433,218.944946 295.589569,218.445358 294.829956,217.330765 
	C293.813080,216.229492 292.796204,215.128204 291.673004,213.417633 
	C290.803345,212.563004 289.933685,211.708359 288.898621,210.252502 
	C288.183472,209.511612 287.468323,208.770706 286.643677,207.425186 
	C285.779694,206.577011 284.915710,205.728836 283.878174,204.278336 
	C283.162628,203.529602 282.447052,202.780869 281.620361,201.426834 
	C280.754303,200.576569 279.888245,199.726318 278.746704,198.183578 
	C278.128052,197.995056 277.509430,197.806519 276.223755,197.777145 
	C274.864655,199.535873 273.505585,201.294601 271.650787,203.263840 
	C271.375610,203.711212 271.100403,204.158585 270.200317,204.853241 
	C268.875061,206.578354 267.549835,208.303467 265.860046,210.157455 
	C265.860046,210.157455 265.797791,210.539047 265.161987,210.806961 
	C261.846100,214.880463 258.530212,218.953964 254.852020,223.146072 
	C254.852020,223.146072 254.791077,223.522400 254.159241,223.785522 
	C252.529541,225.868347 250.899826,227.951157 248.886734,230.180832 
	C248.886734,230.180832 248.817230,230.585434 248.186737,230.832352 
	C246.847366,232.581070 245.507996,234.329788 244.062714,236.073151 
	C244.062714,236.073151 244.087021,236.176346 243.466400,236.393646 
	C241.725235,238.621750 239.984070,240.849838 237.730362,243.317780 
	C237.449677,243.790787 237.169006,244.263794 236.272522,244.960358 
	C235.258392,246.331650 234.244278,247.702942 232.678696,249.355087 
	C232.098663,250.187576 231.518631,251.020065 230.340210,252.049927 
	C229.631973,253.056778 228.923737,254.063614 227.662857,255.344528 
	C227.085541,256.174622 226.508209,257.004700 225.330460,258.033020 
	C224.620209,259.044098 223.909943,260.055176 222.646881,261.332031 
	C222.070221,262.155670 221.493576,262.979279 220.315582,264.006226 
	C219.606003,265.025085 218.896423,266.043945 217.632172,267.320343 
	C217.057938,268.142090 216.483704,268.963837 215.299973,269.996704 
	C214.310852,271.341553 213.321732,272.686401 211.798981,274.288239 
	C211.499481,274.780457 211.199966,275.272705 210.290878,275.981567 
	C209.296600,277.330719 208.302307,278.679871 206.777267,280.281067 
	C206.483093,280.771179 206.188919,281.261292 205.279449,281.971954 
	C204.269730,283.341187 203.260025,284.710449 201.729797,286.306580 
	C201.448181,286.780548 201.166580,287.254517 200.269257,287.953766 
	C199.257553,289.327698 198.245834,290.701630 196.716309,292.299561 
	C196.437027,292.770721 196.157761,293.241882 195.260696,293.937408 
	C194.245178,295.315094 193.229660,296.692749 191.656448,298.333527 
	C191.079376,299.162903 190.502304,299.992279 189.324783,301.022247 
	C188.616547,302.037018 187.908310,303.051788 186.641495,304.322296 
	C186.066391,305.148346 185.491287,305.974396 184.238037,307.088501 
	C183.625320,309.408417 182.488571,311.726227 182.479263,314.048553 
	C182.359192,344.027069 182.395584,374.006195 182.410049,403.985168 
	C182.410889,405.749054 182.562302,407.512878 182.660660,409.645660 
	C201.650787,409.645660 220.112747,409.660339 238.574234,409.574310 
	C239.123276,409.571716 239.667358,408.511963 240.512772,407.055603 
	C240.528427,353.373749 240.545837,299.691895 240.545959,246.010025 
	C240.545959,245.027390 240.339615,244.044739 240.666504,242.486847 
	C241.725555,242.975433 243.071289,243.202728 243.795059,243.996872 
	C247.315292,247.859375 250.669083,251.873581 254.057953,255.930496 
	C254.057953,255.930496 254.157196,255.926682 254.275482,256.591583 
	C257.117126,259.882141 259.958801,263.172699 262.855774,266.842926 
	C262.855774,266.842926 263.216583,266.973358 263.315887,267.611420 
	C264.901001,269.360931 266.486145,271.110443 268.048126,272.940613 
	C268.048126,272.940613 268.131927,272.936646 268.238861,273.585266 
M407.476471,121.007057 
	C421.267700,104.481071 435.058929,87.955093 449.342163,70.839569 
	C447.590668,70.660446 446.797424,70.508949 446.004120,70.508461 
	C425.029602,70.495552 404.054199,70.417175 383.081940,70.634636 
	C381.169128,70.654465 378.751770,72.149864 377.455200,73.701035 
	C364.645691,89.025826 352.018951,104.503494 339.356171,119.950745 
	C338.245209,121.306000 337.245941,122.752823 335.980499,124.443375 
	C348.842834,136.875473 361.326965,148.942017 373.951782,161.144547 
	C384.836121,148.113983 395.928406,134.834488 407.476471,121.007057 
M196.516266,70.482460 
	C191.921417,70.482460 187.326553,70.482460 182.794067,70.482460 
	C182.794067,104.149887 182.794067,137.039032 182.794067,170.754181 
	C184.561783,169.133667 185.779755,168.090912 186.915207,166.964935 
	C200.046494,153.943085 212.512024,140.149338 226.495132,128.119003 
	C237.580917,118.581360 242.768997,108.205345 240.755585,93.626389 
	C239.725784,86.169724 240.575043,78.453545 240.575043,70.482544 
	C225.772385,70.482544 211.641388,70.482544 196.516266,70.482460 
z"/>
<path fill="#FFFFFF" opacity="1.000000" stroke="none" 
	d="
M364.713837,301.034271 
	C364.713837,301.034271 365.101624,301.202911 365.090332,301.772034 
	C366.630188,303.904877 368.181305,305.468628 369.732422,307.032349 
	C369.732422,307.032349 370.114105,307.190918 370.098511,307.757874 
	C371.653107,309.906738 373.223297,311.488617 374.793457,313.070496 
	C375.200165,313.435120 375.606873,313.799713 376.037506,314.792358 
	C377.310852,316.635651 378.560242,317.850861 379.809631,319.066071 
	C380.214172,319.426788 380.618713,319.787537 381.045898,320.786804 
	C385.945953,326.962158 390.823395,332.498993 395.700836,338.035828 
	C395.700836,338.035828 396.095520,338.201752 396.086639,338.772949 
	C397.627838,340.907074 399.177948,342.470032 400.728058,344.032990 
	C400.728058,344.032990 401.114502,344.179443 401.098633,344.745850 
	C402.638947,346.884979 404.195129,348.457672 405.751312,350.030396 
	C405.751312,350.030396 406.129089,350.165649 406.107727,350.728729 
	C407.657196,352.884277 409.228027,354.476776 410.798889,356.069244 
	C411.206085,356.429108 411.613312,356.788971 412.043915,357.787811 
	C416.946045,363.963043 421.824829,369.499329 426.703583,375.035583 
	C426.703583,375.035583 427.098999,375.197571 427.088043,375.768585 
	C428.626984,377.904083 430.176880,379.468597 431.726776,381.033081 
	C431.726776,381.033081 432.113800,381.183868 432.097656,381.752075 
	C433.652191,383.903748 435.222839,385.487213 436.793488,387.070709 
	C437.201080,387.435730 437.608673,387.800751 438.037170,388.794189 
	C439.584564,390.962494 441.111084,392.502350 442.637573,394.042236 
	C442.637573,394.042236 443.054413,394.242432 443.058716,394.824768 
	C444.595276,396.951416 446.127502,398.495697 447.659760,400.039978 
	C447.659760,400.039978 448.069122,400.230652 448.070557,400.824615 
	C449.288940,403.393616 450.505859,405.368652 451.907959,407.644257 
	C450.623444,407.817719 449.976990,407.980896 449.330414,407.981354 
	C427.400208,407.997162 405.469940,408.021179 383.539917,407.955597 
	C381.767273,407.950317 379.996490,407.315308 378.224854,406.972900 
	C377.518372,406.225433 376.811920,405.477936 376.038635,404.093994 
	C375.073517,402.627380 374.175201,401.797241 373.276855,400.967133 
	C372.862976,400.571686 372.449097,400.176239 371.990906,399.150696 
	C371.020630,397.660645 370.094696,396.800690 369.168762,395.940704 
	C368.769745,395.578186 368.370758,395.215637 367.950104,394.230713 
	C366.705475,392.395142 365.482483,391.181976 364.259491,389.968842 
	C363.847412,389.577484 363.435364,389.186127 362.982788,388.163452 
	C362.007660,386.671417 361.073059,385.810730 360.138458,384.950073 
	C359.448273,384.223969 358.758087,383.497833 358.012390,382.134094 
	C357.043701,380.655457 356.130493,379.814484 355.217285,378.973541 
	C354.512787,378.226501 353.808319,377.479462 353.037109,376.096436 
	C352.071320,374.629486 351.172180,373.798523 350.273071,372.967590 
	C349.861389,372.568085 349.449707,372.168549 348.993835,371.138458 
	C348.020935,369.652740 347.092224,368.797577 346.163513,367.942444 
	C345.469666,367.211395 344.775818,366.480377 344.022705,365.114105 
	C343.059692,363.642548 342.155914,362.806183 341.252136,361.969818 
	C340.842041,361.579468 340.431946,361.189148 339.980652,360.168030 
	C339.001648,358.676239 338.063873,357.815216 337.126099,356.954224 
	C336.438812,356.229309 335.751526,355.504425 335.008301,354.140747 
	C334.032257,352.645996 333.112152,351.790009 332.192047,350.934052 
	C331.790863,350.566315 331.389679,350.198578 330.959564,349.205322 
	C329.992432,347.705658 329.054230,346.831543 328.116058,345.957428 
	C327.429047,345.237091 326.742035,344.516754 326.000793,343.155701 
	C325.017120,341.658020 324.087708,340.801056 323.158295,339.944122 
	C322.466278,339.213684 321.774292,338.483215 321.021362,337.117126 
	C320.052460,335.644867 319.144531,334.808228 318.236572,333.971588 
	C317.530518,333.219147 316.824432,332.466675 316.039581,331.085938 
	C315.349731,329.956360 314.738647,329.455048 314.127594,328.953735 
	C313.439514,328.232513 312.751434,327.511261 312.005493,326.150269 
	C311.022430,324.653656 310.097260,323.796783 309.172058,322.939941 
	C308.478668,322.208160 307.785309,321.476410 307.020874,320.116669 
	C306.334961,318.979523 305.720093,318.470367 305.105225,317.961182 
	C304.420776,317.241577 303.736328,316.521942 302.998474,315.161194 
	C302.012970,313.662415 301.080841,312.804749 300.148743,311.947083 
	C299.456421,311.222137 298.764130,310.497162 298.014343,309.133057 
	C297.035339,307.640594 296.113831,306.787354 295.192322,305.934082 
	C294.793732,305.561432 294.395111,305.188812 293.966400,304.192383 
	C293.004150,302.695587 292.072052,301.822632 291.139923,300.949646 
	C290.747650,300.594513 290.355408,300.239349 289.942963,299.263672 
	C288.686859,297.419983 287.450897,296.196777 286.214966,294.973602 
	C286.214966,294.973602 285.857422,294.840027 285.880737,294.287048 
	C284.358551,292.145355 282.812988,290.556610 281.267456,288.967865 
	C281.267456,288.967865 280.890381,288.805725 280.903259,288.241333 
	C279.657928,286.428955 278.399750,285.180908 277.141571,283.932892 
	C277.141571,283.932892 277.052704,283.935455 277.071411,283.539673 
	C275.474701,281.419373 273.859253,279.694794 272.243835,277.970245 
	C272.243835,277.970245 271.872406,277.834564 271.891418,277.274841 
	C270.650940,275.455627 269.391449,274.196136 268.131927,272.936646 
	C268.131927,272.936646 268.048126,272.940613 268.068512,272.546295 
	C266.464783,270.425781 264.840698,268.699554 263.216583,266.973358 
	C263.216583,266.973358 262.855774,266.842926 262.880524,266.279083 
	C259.989258,262.452393 257.073212,259.189545 254.157196,255.926682 
	C254.157196,255.926682 254.057953,255.930496 254.076187,255.525208 
	C251.666107,251.850372 249.382599,248.459076 246.766037,245.347870 
	C244.460693,242.606659 242.508499,239.962234 244.087021,236.176346 
	C244.087021,236.176346 244.062714,236.073151 244.462372,236.039124 
	C246.180450,234.198532 247.498840,232.391983 248.817230,230.585434 
	C248.817230,230.585434 248.886734,230.180832 249.415161,230.080872 
	C251.559433,227.828094 253.175262,225.675247 254.791077,223.522400 
	C254.791077,223.522400 254.852020,223.146072 255.368515,223.065155 
	C259.189270,218.835831 262.493530,214.687439 265.797791,210.539047 
	C265.797791,210.539047 265.860046,210.157455 266.384644,210.066620 
	C268.214569,208.185837 269.519897,206.395905 270.825195,204.605957 
	C271.100403,204.158585 271.375610,203.711212 272.244446,203.127960 
	C274.188995,201.200729 275.539886,199.409363 276.890778,197.617981 
	C277.509430,197.806519 278.128052,197.995056 278.878845,198.866409 
	C279.917847,200.376877 280.824677,201.204514 281.731506,202.032135 
	C282.447052,202.780869 283.162628,203.529602 283.953857,204.915894 
	C284.937408,206.378906 285.845276,207.204361 286.753174,208.029816 
	C287.468323,208.770706 288.183472,209.511612 288.967163,210.892456 
	C289.950226,212.363922 290.864777,213.195419 291.779327,214.026917 
	C292.796204,215.128204 293.813080,216.229492 294.924896,217.955505 
	C295.615356,219.061249 296.210846,219.542236 296.806366,220.023224 
	C297.821930,221.116547 298.837494,222.209869 299.941345,223.934967 
	C300.637695,225.061874 301.245758,225.557007 301.853821,226.052155 
	C302.857300,227.130341 303.860779,228.208527 304.950256,229.919266 
	C305.648560,231.049896 306.260895,231.547974 306.873199,232.046051 
	C307.874542,233.116882 308.875885,234.187714 309.955444,235.899399 
	C310.938416,237.370255 311.843201,238.200287 312.747955,239.030304 
	C313.463959,239.769257 314.179993,240.508209 314.968079,241.885406 
	C315.949432,243.358475 316.858673,244.193344 317.767914,245.028198 
	C318.479919,245.763687 319.191895,246.499161 319.974884,247.875885 
	C320.970032,249.365738 321.894196,250.214355 322.818359,251.062958 
	C323.519379,251.783005 324.220428,252.503021 324.985168,253.863571 
	C325.981384,255.354279 326.913818,256.204468 327.846283,257.054657 
	C328.543488,257.770844 329.240692,258.487061 329.996094,259.845703 
	C330.992157,261.341431 331.929962,262.194702 332.867798,263.047943 
	C333.562012,263.759430 334.256226,264.470917 335.002899,265.823517 
	C336.284729,267.653381 337.514130,268.842163 338.743500,270.030914 
	C339.156616,270.417053 339.569733,270.803192 340.020203,271.819824 
	C341.291534,273.643250 342.525452,274.836212 343.759399,276.029175 
	C344.170135,276.411652 344.580872,276.794159 345.026489,277.807922 
	C346.309753,279.648315 347.558136,280.857422 348.806488,282.066528 
	C349.208221,282.433533 349.609924,282.800537 350.039001,283.794220 
	C351.321625,285.633698 352.576874,286.846466 353.832153,288.059265 
	C354.232025,288.416382 354.631927,288.773499 355.052063,289.756104 
	C356.611908,291.933258 358.151520,293.484955 359.691132,295.036652 
	C359.691132,295.036652 360.086304,295.217743 360.080750,295.790619 
	C361.621368,297.920441 363.167603,299.477356 364.713837,301.034271 
z"/>
<path fill="#F9F9F9" opacity="1.000000" stroke="none" 
	d="
M225.930893,257.834778 
	C226.508209,257.004700 227.085541,256.174622 228.275452,255.161865 
	C229.571564,253.936996 230.255081,252.894775 230.938599,251.852539 
	C231.518631,251.020065 232.098663,250.187576 233.295059,249.166626 
	C234.903702,247.564362 235.895996,246.150574 236.888306,244.736801 
	C237.169006,244.263794 237.449677,243.790787 238.317841,243.202515 
	C239.346725,243.078873 239.788132,243.070496 240.229538,243.062103 
	C240.339615,244.044739 240.545959,245.027390 240.545959,246.010025 
	C240.545837,299.691895 240.528427,353.373749 239.881012,407.519409 
	C222.620544,407.991516 205.988861,407.829987 189.365005,408.118896 
	C184.804779,408.198151 183.865799,406.703217 183.892212,402.444305 
	C184.069580,373.843903 183.954514,345.241791 184.025467,316.640442 
	C184.033600,313.359741 184.605621,310.080414 184.916168,306.800446 
	C185.491287,305.974396 186.066391,305.148346 187.260254,304.150574 
	C188.561096,302.926453 189.243179,301.874054 189.925247,300.821655 
	C190.502304,299.992279 191.079376,299.162903 192.278320,298.156494 
	C193.892944,296.557312 194.885712,295.135193 195.878479,293.713043 
	C196.157761,293.241882 196.437027,292.770721 197.316254,292.140015 
	C198.905777,290.563171 199.895355,289.145813 200.884949,287.728485 
	C201.166580,287.254517 201.448181,286.780548 202.329117,286.144165 
	C203.917206,284.571655 204.905975,283.161530 205.894745,281.751404 
	C206.188919,281.261292 206.483093,280.771179 207.377457,280.117554 
	C208.951935,278.557678 209.926208,277.161316 210.900482,275.764954 
	C211.199966,275.272705 211.499481,274.780457 212.398224,274.120972 
	C213.968155,272.564331 214.938812,271.174957 215.909485,269.785583 
	C216.483704,268.963837 217.057938,268.142090 218.250732,267.148193 
	C219.551849,265.918365 220.234406,264.860626 220.916931,263.802917 
	C221.493576,262.979279 222.070221,262.155670 223.261658,261.154785 
	C224.561264,259.929962 225.246078,258.882385 225.930893,257.834778 
z"/>
<path fill="#FCFCFC" opacity="1.000000" stroke="none" 
	d="
M407.248566,121.281036 
	C395.928406,134.834488 384.836121,148.113983 373.951782,161.144547 
	C361.326965,148.942017 348.842834,136.875473 335.980499,124.443375 
	C337.245941,122.752823 338.245209,121.306000 339.356171,119.950745 
	C352.018951,104.503494 364.645691,89.025826 377.455200,73.701035 
	C378.751770,72.149864 381.169128,70.654465 383.081940,70.634636 
	C404.054199,70.417175 425.029602,70.495552 446.004120,70.508461 
	C446.797424,70.508949 447.590668,70.660446 449.342163,70.839569 
	C435.058929,87.955093 421.267700,104.481071 407.248566,121.281036 
z"/>
<path fill="#F9F9F9" opacity="1.000000" stroke="none" 
	d="
M197.013336,70.482498 
	C211.641388,70.482544 225.772385,70.482544 240.575043,70.482544 
	C240.575043,78.453545 239.725784,86.169724 240.755585,93.626389 
	C242.768997,108.205345 237.580917,118.581360 226.495132,128.119003 
	C212.512024,140.149338 200.046494,153.943085 186.915207,166.964935 
	C185.779755,168.090912 184.561783,169.133667 182.794067,170.754181 
	C182.794067,137.039032 182.794067,104.149887 182.794067,70.482460 
	C187.326553,70.482460 191.921417,70.482460 197.013336,70.482498 
z"/>
<path fill="#E9E9E9" opacity="1.000000" stroke="none" 
	d="
M184.577118,306.944458 
	C184.605621,310.080414 184.033600,313.359741 184.025467,316.640442 
	C183.954514,345.241791 184.069580,373.843903 183.892212,402.444305 
	C183.865799,406.703217 184.804779,408.198151 189.365005,408.118896 
	C205.988861,407.829987 222.620544,407.991516 239.731506,407.964172 
	C239.667358,408.511963 239.123276,409.571716 238.574234,409.574310 
	C220.112747,409.660339 201.650787,409.645660 182.660660,409.645660 
	C182.562302,407.512878 182.410889,405.749054 182.410049,403.985168 
	C182.395584,374.006195 182.359192,344.027069 182.479263,314.048553 
	C182.488571,311.726227 183.625320,309.408417 184.577118,306.944458 
z"/>
<path fill="#E9E9E9" opacity="1.000000" stroke="none" 
	d="
M378.305298,407.323120 
	C379.996490,407.315308 381.767273,407.950317 383.539917,407.955597 
	C405.469940,408.021179 427.400208,407.997162 449.330414,407.981354 
	C449.976990,407.980896 450.623444,407.817719 451.907959,407.644257 
	C450.505859,405.368652 449.288940,403.393616 448.107849,401.047302 
	C450.537048,403.297394 452.930389,405.918762 456.034241,409.318329 
	C453.376434,409.478546 451.954498,409.637939 450.532410,409.638947 
	C428.398529,409.654663 406.264374,409.698547 384.131317,409.564056 
	C382.212372,409.552399 380.300781,408.332184 378.305298,407.323120 
z"/>
<path fill="#E9E9E9" opacity="1.000000" stroke="none" 
	d="
M240.448029,242.774475 
	C239.788132,243.070496 239.346725,243.078873 238.574112,243.082596 
	C239.984070,240.849838 241.725235,238.621750 243.776703,236.285004 
	C242.508499,239.962234 244.460693,242.606659 246.766037,245.347870 
	C249.382599,248.459076 251.666107,251.850372 254.088104,255.476990 
	C250.669083,251.873581 247.315292,247.859375 243.795059,243.996872 
	C243.071289,243.202728 241.725555,242.975433 240.448029,242.774475 
z"/>
<path fill="#E9E9E9" opacity="1.000000" stroke="none" 
	d="
M426.651184,374.712616 
	C421.824829,369.499329 416.946045,363.963043 412.101440,358.060730 
	C416.956635,363.259674 421.777710,368.824646 426.651184,374.712616 
z"/>
<path fill="#E9E9E9" opacity="1.000000" stroke="none" 
	d="
M395.648407,337.713043 
	C390.823395,332.498993 385.945953,326.962158 381.102509,321.059204 
	C385.956329,326.258820 390.776154,331.824524 395.648407,337.713043 
z"/>
<path fill="#E9E9E9" opacity="1.000000" stroke="none" 
	d="
M265.479889,210.673004 
	C262.493530,214.687439 259.189270,218.835831 255.549667,223.005844 
	C258.530212,218.953964 261.846100,214.880463 265.479889,210.673004 
z"/>
<path fill="#E9E9E9" opacity="1.000000" stroke="none" 
	d="
M254.216339,256.259125 
	C257.073212,259.189545 259.989258,262.452393 262.852844,266.089233 
	C259.958801,263.172699 257.117126,259.882141 254.216339,256.259125 
z"/>
<path fill="#E9E9E9" opacity="1.000000" stroke="none" 
	d="
M254.475159,223.653961 
	C253.175262,225.675247 251.559433,227.828094 249.606857,230.007446 
	C250.899826,227.951157 252.529541,225.868347 254.475159,223.653961 
z"/>
<path fill="#E9E9E9" opacity="1.000000" stroke="none" 
	d="
M272.296936,278.286926 
	C273.859253,279.694794 275.474701,281.419373 277.082764,283.496704 
	C275.500305,282.100891 273.925171,280.352264 272.296936,278.286926 
z"/>
<path fill="#E9E9E9" opacity="1.000000" stroke="none" 
	d="
M263.266235,267.292389 
	C264.840698,268.699554 266.464783,270.425781 268.080078,272.505981 
	C266.486145,271.110443 264.901001,269.360931 263.266235,267.292389 
z"/>
<path fill="#E9E9E9" opacity="1.000000" stroke="none" 
	d="
M276.557251,197.697571 
	C275.539886,199.409363 274.188995,201.200729 272.492310,203.022705 
	C273.505585,201.294601 274.864655,199.535873 276.557251,197.697571 
z"/>
<path fill="#E9E9E9" opacity="1.000000" stroke="none" 
	d="
M281.322876,289.285248 
	C282.812988,290.556610 284.358551,292.145355 285.852173,294.098389 
	C284.326294,292.842651 282.852264,291.222626 281.322876,289.285248 
z"/>
<path fill="#E9E9E9" opacity="1.000000" stroke="none" 
	d="
M359.636414,294.722534 
	C358.151520,293.484955 356.611908,291.933258 355.109741,290.024963 
	C356.625397,291.248352 358.103577,292.828369 359.636414,294.722534 
z"/>
<path fill="#E9E9E9" opacity="1.000000" stroke="none" 
	d="
M364.661621,300.718201 
	C363.167603,299.477356 361.621368,297.920441 360.115723,296.005127 
	C361.640656,297.231903 363.125000,298.817017 364.661621,300.718201 
z"/>
<path fill="#E9E9E9" opacity="1.000000" stroke="none" 
	d="
M369.681824,306.714691 
	C368.181305,305.468628 366.630188,303.904877 365.122864,301.980957 
	C366.654816,303.212860 368.143005,304.804932 369.681824,306.714691 
z"/>
<path fill="#E9E9E9" opacity="1.000000" stroke="none" 
	d="
M374.738251,312.748413 
	C373.223297,311.488617 371.653107,309.906738 370.128937,307.962280 
	C371.677643,309.208588 373.180328,310.817444 374.738251,312.748413 
z"/>
<path fill="#E9E9E9" opacity="1.000000" stroke="none" 
	d="
M400.677917,343.715271 
	C399.177948,342.470032 397.627838,340.907074 396.121368,338.984131 
	C397.652588,340.215302 399.140167,341.806427 400.677917,343.715271 
z"/>
<path fill="#E9E9E9" opacity="1.000000" stroke="none" 
	d="
M405.700867,349.711121 
	C404.195129,348.457672 402.638947,346.884979 401.130951,344.949951 
	C402.669586,346.189056 404.160034,347.790466 405.700867,349.711121 
z"/>
<path fill="#E9E9E9" opacity="1.000000" stroke="none" 
	d="
M410.745667,355.745789 
	C409.228027,354.476776 407.657196,352.884277 406.137695,350.927124 
	C407.690186,352.182404 409.191284,353.802399 410.745667,355.745789 
z"/>
<path fill="#E9E9E9" opacity="1.000000" stroke="none" 
	d="
M270.512756,204.729599 
	C269.519897,206.395905 268.214569,208.185837 266.566925,210.002182 
	C267.549835,208.303467 268.875061,206.578354 270.512756,204.729599 
z"/>
<path fill="#E9E9E9" opacity="1.000000" stroke="none" 
	d="
M431.678589,380.714844 
	C430.176880,379.468597 428.626984,377.904083 427.121887,375.979553 
	C428.654633,377.211853 430.142548,378.804199 431.678589,380.714844 
z"/>
<path fill="#E9E9E9" opacity="1.000000" stroke="none" 
	d="
M436.740112,386.747986 
	C435.222839,385.487213 433.652191,383.903748 432.129059,381.957397 
	C433.679962,383.204742 435.183350,384.814972 436.740112,386.747986 
z"/>
<path fill="#E9E9E9" opacity="1.000000" stroke="none" 
	d="
M248.501984,230.708893 
	C247.498840,232.391983 246.180450,234.198532 244.515335,236.041809 
	C245.507996,234.329788 246.847366,232.581070 248.501984,230.708893 
z"/>
<path fill="#E9E9E9" opacity="1.000000" stroke="none" 
	d="
M442.589264,393.729614 
	C441.111084,392.502350 439.584564,390.962494 438.092224,389.069336 
	C439.597870,390.283020 441.069397,391.850006 442.589264,393.729614 
z"/>
<path fill="#E9E9E9" opacity="1.000000" stroke="none" 
	d="
M447.611176,399.726135 
	C446.127502,398.495697 444.595276,396.951416 443.098724,395.052490 
	C444.610474,396.269318 446.086548,397.840790 447.611176,399.726135 
z"/>
<path fill="#E9E9E9" opacity="1.000000" stroke="none" 
	d="
M379.756653,318.747314 
	C378.560242,317.850861 377.310852,316.635651 376.094971,315.066101 
	C377.320221,315.950684 378.511932,317.189606 379.756653,318.747314 
z"/>
<path fill="#E9E9E9" opacity="1.000000" stroke="none" 
	d="
M195.569580,293.825226 
	C194.885712,295.135193 193.892944,296.557312 192.557159,298.024963 
	C193.229660,296.692749 194.245178,295.315094 195.569580,293.825226 
z"/>
<path fill="#E9E9E9" opacity="1.000000" stroke="none" 
	d="
M364.315369,390.281616 
	C365.482483,391.181976 366.705475,392.395142 367.894409,393.960358 
	C366.697327,393.073059 365.534271,391.833740 364.315369,390.281616 
z"/>
<path fill="#E9E9E9" opacity="1.000000" stroke="none" 
	d="
M286.267151,295.290100 
	C287.450897,296.196777 288.686859,297.419983 289.882629,298.999390 
	C288.668091,298.105927 287.493713,296.856262 286.267151,295.290100 
z"/>
<path fill="#E9E9E9" opacity="1.000000" stroke="none" 
	d="
M200.577103,287.841125 
	C199.895355,289.145813 198.905777,290.563171 197.575150,292.028046 
	C198.245834,290.701630 199.257553,289.327698 200.577103,287.841125 
z"/>
<path fill="#E9E9E9" opacity="1.000000" stroke="none" 
	d="
M353.775848,287.740326 
	C352.576874,286.846466 351.321625,285.633698 350.097656,284.065918 
	C351.325806,284.947754 352.522675,286.184570 353.775848,287.740326 
z"/>
<path fill="#E9E9E9" opacity="1.000000" stroke="none" 
	d="
M205.587097,281.861694 
	C204.905975,283.161530 203.917206,284.571655 202.589371,286.030701 
	C203.260025,284.710449 204.269730,283.341187 205.587097,281.861694 
z"/>
<path fill="#E9E9E9" opacity="1.000000" stroke="none" 
	d="
M348.754272,281.748047 
	C347.558136,280.857422 346.309753,279.648315 345.090149,278.086426 
	C346.313263,278.965607 347.507690,280.197601 348.754272,281.748047 
z"/>
<path fill="#E9E9E9" opacity="1.000000" stroke="none" 
	d="
M210.595673,275.873260 
	C209.926208,277.161316 208.951935,278.557678 207.642838,279.991516 
	C208.302307,278.679871 209.296600,277.330719 210.595673,275.873260 
z"/>
<path fill="#E9E9E9" opacity="1.000000" stroke="none" 
	d="
M268.185394,273.260956 
	C269.391449,274.196136 270.650940,275.455627 271.859222,277.079773 
	C270.618286,276.158020 269.428589,274.871643 268.185394,273.260956 
z"/>
<path fill="#E9E9E9" opacity="1.000000" stroke="none" 
	d="
M343.707489,275.715454 
	C342.525452,274.836212 341.291534,273.643250 340.084473,272.100372 
	C341.292755,272.967560 342.474182,274.184631 343.707489,275.715454 
z"/>
<path fill="#E9E9E9" opacity="1.000000" stroke="none" 
	d="
M215.604721,269.891144 
	C214.938812,271.174957 213.968155,272.564331 212.665054,273.992493 
	C213.321732,272.686401 214.310852,271.341553 215.604721,269.891144 
z"/>
<path fill="#E9E9E9" opacity="1.000000" stroke="none" 
	d="
M338.689575,269.718750 
	C337.514130,268.842163 336.284729,267.653381 335.079407,266.116272 
	C336.280853,266.980804 337.458221,268.193695 338.689575,269.718750 
z"/>
<path fill="#E9E9E9" opacity="1.000000" stroke="none" 
	d="
M277.196838,284.255585 
	C278.399750,285.180908 279.657928,286.428955 280.870483,288.038757 
	C279.633942,287.126434 278.443054,285.852356 277.196838,284.255585 
z"/>
<path fill="#E9E9E9" opacity="1.000000" stroke="none" 
	d="
M236.580414,244.848572 
	C235.895996,246.150574 234.903702,247.564362 233.570801,249.026184 
	C234.244278,247.702942 235.258392,246.331650 236.580414,244.848572 
z"/>
<path fill="#E9E9E9" opacity="1.000000" stroke="none" 
	d="
M328.171448,346.272156 
	C329.054230,346.831543 329.992432,347.705658 330.901154,348.933228 
	C329.990082,348.386749 329.108459,347.486816 328.171448,346.272156 
z"/>
<path fill="#E9E9E9" opacity="1.000000" stroke="none" 
	d="
M291.726166,213.722275 
	C290.864777,213.195419 289.950226,212.363922 289.049866,211.193069 
	C289.933685,211.708359 290.803345,212.563004 291.726166,213.722275 
z"/>
<path fill="#E9E9E9" opacity="1.000000" stroke="none" 
	d="
M332.247803,351.243164 
	C333.112152,351.790009 334.032257,352.645996 334.934021,353.845947 
	C334.044983,353.310760 333.174286,352.431519 332.247803,351.243164 
z"/>
<path fill="#E9E9E9" opacity="1.000000" stroke="none" 
	d="
M337.179138,357.267792 
	C338.063873,357.815216 339.001648,358.676239 339.916504,359.887512 
	C339.006439,359.352295 338.119324,358.466827 337.179138,357.267792 
z"/>
<path fill="#E9E9E9" opacity="1.000000" stroke="none" 
	d="
M317.712952,244.724060 
	C316.858673,244.193344 315.949432,243.358475 315.053986,242.184662 
	C315.931183,242.703781 316.794556,243.561844 317.712952,244.724060 
z"/>
<path fill="#E9E9E9" opacity="1.000000" stroke="none" 
	d="
M341.301086,362.274231 
	C342.155914,362.806183 343.059692,363.642548 343.947571,364.817047 
	C343.071167,364.296356 342.210602,363.437531 341.301086,362.274231 
z"/>
<path fill="#E9E9E9" opacity="1.000000" stroke="none" 
	d="
M346.216064,368.253967 
	C347.092224,368.797577 348.020935,369.652740 348.930328,370.854065 
	C348.030212,370.321991 347.149414,369.443726 346.216064,368.253967 
z"/>
<path fill="#E9E9E9" opacity="1.000000" stroke="none" 
	d="
M350.321045,373.270569 
	C351.172180,373.798523 352.071320,374.629486 352.956421,375.796234 
	C352.084656,375.279236 351.226837,374.426392 350.321045,373.270569 
z"/>
<path fill="#E9E9E9" opacity="1.000000" stroke="none" 
	d="
M286.698425,207.727509 
	C285.845276,207.204361 284.937408,206.378906 284.040619,205.217072 
	C284.915710,205.728836 285.779694,206.577011 286.698425,207.727509 
z"/>
<path fill="#E9E9E9" opacity="1.000000" stroke="none" 
	d="
M355.266296,379.280365 
	C356.130493,379.814484 357.043701,380.655457 357.938721,381.838043 
	C357.052124,381.315521 356.183716,380.451355 355.266296,379.280365 
z"/>
<path fill="#E9E9E9" opacity="1.000000" stroke="none" 
	d="
M312.692078,238.728363 
	C311.843201,238.200287 310.938416,237.370255 310.045898,236.203476 
	C310.917480,236.719955 311.776825,237.573196 312.692078,238.728363 
z"/>
<path fill="#E9E9E9" opacity="1.000000" stroke="none" 
	d="
M360.190857,385.263367 
	C361.073059,385.810730 362.007660,386.671417 362.919678,387.881348 
	C362.012482,387.345917 361.127869,386.461273 360.190857,385.263367 
z"/>
<path fill="#E9E9E9" opacity="1.000000" stroke="none" 
	d="
M369.222046,396.252319 
	C370.094696,396.800690 371.020630,397.660645 371.925568,398.867401 
	C371.028168,398.330750 370.151764,397.447327 369.222046,396.252319 
z"/>
<path fill="#E9E9E9" opacity="1.000000" stroke="none" 
	d="
M373.324188,401.269958 
	C374.175201,401.797241 375.073517,402.627380 375.957947,403.793121 
	C375.086487,403.276764 374.229004,402.424774 373.324188,401.269958 
z"/>
<path fill="#E9E9E9" opacity="1.000000" stroke="none" 
	d="
M300.201447,312.259277 
	C301.080841,312.804749 302.012970,313.662415 302.924500,314.867859 
	C302.020660,314.334290 301.137421,313.452881 300.201447,312.259277 
z"/>
<path fill="#E9E9E9" opacity="1.000000" stroke="none" 
	d="
M189.625031,300.921936 
	C189.243179,301.874054 188.561096,302.926453 187.539551,304.022705 
	C187.908310,303.051788 188.616547,302.037018 189.625031,300.921936 
z"/>
<path fill="#E9E9E9" opacity="1.000000" stroke="none" 
	d="
M291.191956,301.263977 
	C292.072052,301.822632 293.004150,302.695587 293.907349,303.920227 
	C293.000244,303.373993 292.122131,302.476166 291.191956,301.263977 
z"/>
<path fill="#E9E9E9" opacity="1.000000" stroke="none" 
	d="
M220.616272,263.904572 
	C220.234406,264.860626 219.551849,265.918365 218.528076,267.019440 
	C218.896423,266.043945 219.606003,265.025085 220.616272,263.904572 
z"/>
<path fill="#E9E9E9" opacity="1.000000" stroke="none" 
	d="
M295.244873,306.243561 
	C296.113831,306.787354 297.035339,307.640594 297.938171,308.837830 
	C297.045441,308.305542 296.171448,307.429291 295.244873,306.243561 
z"/>
<path fill="#E9E9E9" opacity="1.000000" stroke="none" 
	d="
M281.675934,201.729492 
	C280.824677,201.204514 279.917847,200.376877 279.016602,199.212646 
	C279.888245,199.726318 280.754303,200.576569 281.675934,201.729492 
z"/>
<path fill="#E9E9E9" opacity="1.000000" stroke="none" 
	d="
M332.816772,262.734497 
	C331.929962,262.194702 330.992157,261.341431 330.073547,260.139709 
	C330.983765,260.667847 331.874725,261.544464 332.816772,262.734497 
z"/>
<path fill="#E9E9E9" opacity="1.000000" stroke="none" 
	d="
M322.762360,250.753616 
	C321.894196,250.214355 320.970032,249.365738 320.060242,248.173920 
	C320.951843,248.701904 321.829102,249.573090 322.762360,250.753616 
z"/>
<path fill="#E9E9E9" opacity="1.000000" stroke="none" 
	d="
M225.630676,257.933899 
	C225.246078,258.882385 224.561264,259.929962 223.538055,261.021912 
	C223.909943,260.055176 224.620209,259.044098 225.630676,257.933899 
z"/>
<path fill="#E9E9E9" opacity="1.000000" stroke="none" 
	d="
M327.794220,256.742798 
	C326.913818,256.204468 325.981384,255.354279 325.066040,254.158081 
	C325.969513,254.685028 326.855835,255.557983 327.794220,256.742798 
z"/>
<path fill="#E9E9E9" opacity="1.000000" stroke="none" 
	d="
M309.229553,323.249512 
	C310.097260,323.796783 311.022430,324.653656 311.928864,325.856262 
	C311.035736,325.321075 310.161377,324.440094 309.229553,323.249512 
z"/>
<path fill="#E9E9E9" opacity="1.000000" stroke="none" 
	d="
M318.286591,334.276428 
	C319.144531,334.808228 320.052460,335.644867 320.945007,336.820770 
	C320.065247,336.300446 319.200928,335.440857 318.286591,334.276428 
z"/>
<path fill="#E9E9E9" opacity="1.000000" stroke="none" 
	d="
M230.639404,251.951233 
	C230.255081,252.894775 229.571564,253.936996 228.551758,255.024841 
	C228.923737,254.063614 229.631973,253.056778 230.639404,251.951233 
z"/>
<path fill="#E9E9E9" opacity="1.000000" stroke="none" 
	d="
M323.212769,340.255493 
	C324.087708,340.801056 325.017120,341.658020 325.926880,342.861664 
	C325.027222,342.327850 324.147247,341.447357 323.212769,340.255493 
z"/>
<path fill="#E9E9E9" opacity="1.000000" stroke="none" 
	d="
M305.149780,318.261047 
	C305.720093,318.470367 306.334961,318.979523 306.941650,319.820312 
	C306.353790,319.621582 305.774078,319.091217 305.149780,318.261047 
z"/>
<path fill="#E9E9E9" opacity="1.000000" stroke="none" 
	d="
M314.174133,329.250336 
	C314.738647,329.455048 315.349731,329.956360 315.956177,330.785034 
	C315.374573,330.590607 314.797638,330.068756 314.174133,329.250336 
z"/>
<path fill="#E9E9E9" opacity="1.000000" stroke="none" 
	d="
M306.824615,231.750656 
	C306.260895,231.547974 305.648560,231.049896 305.039917,230.225098 
	C305.621063,230.417343 306.198547,230.936295 306.824615,231.750656 
z"/>
<path fill="#E9E9E9" opacity="1.000000" stroke="none" 
	d="
M301.807373,225.758118 
	C301.245758,225.557007 300.637695,225.061874 300.032043,224.242767 
	C300.609924,224.433899 301.185455,224.948990 301.807373,225.758118 
z"/>
<path fill="#E9E9E9" opacity="1.000000" stroke="none" 
	d="
M296.764832,219.733887 
	C296.210846,219.542236 295.615356,219.061249 295.021240,218.263016 
	C295.589569,218.445358 296.156433,218.944946 296.764832,219.733887 
z"/>
</svg>